<?xml version="1.0" encoding="utf-8" standalone="no"?>
<!DOCTYPE svg PUBLIC "-//W3C//DTD SVG 1.1//EN"
  "http://www.w3.org/Graphics/SVG/1.1/DTD/svg11.dtd">
<!-- Created with matplotlib (https://matplotlib.org/) -->
<svg height="231.84pt" version="1.1" viewBox="0 0 349.2 231.84" width="349.2pt" xmlns="http://www.w3.org/2000/svg" xmlns:xlink="http://www.w3.org/1999/xlink">
 <defs>
  <style type="text/css">
*{stroke-linecap:butt;stroke-linejoin:round;}
  </style>
 </defs>
 <g id="figure_1">
  <g id="patch_1">
   <path d="M 0 231.84 
L 349.2 231.84 
L 349.2 0 
L 0 0 
z
" style="fill:#ffffff;"/>
  </g>
  <g id="patch_2">
   <path d="M 7.2 224.64 
L 342 224.64 
L 342 7.2 
L 7.2 7.2 
z
" style="fill:#ffffff;"/>
  </g>
  <g id="pane3d_1">
   <g id="patch_3">
    <path d="M 51.582914 176.593423 
L 147.404425 123.282062 
L 145.809099 21.412801 
L 44.64491 69.311962 
" style="fill:#f2f2f2;opacity:0.5;stroke:#f2f2f2;stroke-linejoin:miter;"/>
   </g>
  </g>
  <g id="pane3d_2">
   <g id="patch_4">
    <path d="M 147.404425 123.282062 
L 302.626265 153.086553 
L 309.120561 48.145466 
L 145.809099 21.412801 
" style="fill:#e6e6e6;opacity:0.5;stroke:#e6e6e6;stroke-linejoin:miter;"/>
   </g>
  </g>
  <g id="pane3d_3">
   <g id="patch_5">
    <path d="M 51.582914 176.593423 
L 214.897263 211.305609 
L 302.626265 153.086553 
L 147.404425 123.282062 
" style="fill:#ececec;opacity:0.5;stroke:#ececec;stroke-linejoin:miter;"/>
   </g>
  </g>
  <g id="axis3d_1">
   <g id="line2d_1">
    <path d="M 51.582914 176.593423 
L 214.897263 211.305609 
" style="fill:none;stroke:#cccccc;stroke-linecap:round;"/>
   </g>
   <g id="Line3DCollection_1">
    <path d="M 54.706055 177.257241 
L 150.38259 123.853906 
L 148.935788 21.924612 
" style="fill:none;stroke:#cccccc;stroke-width:0.8;"/>
    <path d="M 84.974921 183.690837 
L 179.226561 129.392301 
L 179.231751 26.883798 
" style="fill:none;stroke:#cccccc;stroke-width:0.8;"/>
    <path d="M 115.772656 190.236843 
L 208.537687 135.020396 
L 210.043506 31.927414 
" style="fill:none;stroke:#cccccc;stroke-width:0.8;"/>
    <path d="M 147.113242 196.898231 
L 238.327411 140.740387 
L 241.384338 37.057636 
" style="fill:none;stroke:#cccccc;stroke-width:0.8;"/>
    <path d="M 179.01116 203.678079 
L 268.607551 146.554544 
L 273.267993 42.276712 
" style="fill:none;stroke:#cccccc;stroke-width:0.8;"/>
    <path d="M 211.48141 210.579575 
L 299.390317 152.465211 
L 305.708697 47.586973 
" style="fill:none;stroke:#cccccc;stroke-width:0.8;"/>
   </g>
   <g id="xtick_1">
    <g id="line2d_2">
     <path clip-path="url(#p18f7f6c6c7)" d="M 179.124324 112.981622 
" style="fill:none;stroke:#cccccc;stroke-linecap:round;stroke-width:0.8;"/>
    </g>
    <g id="line2d_3">
     <path d="M 55.530243 176.797208 
L 53.054611 178.17902 
" style="fill:none;stroke:#262626;stroke-linecap:round;stroke-width:0.8;"/>
    </g>
    <g id="text_1">
     <!-- 0.0 -->
     <defs>
      <path d="M 4.15625 35.296875 
Q 4.15625 48 6.765625 55.734375 
Q 9.375 63.484375 14.515625 67.671875 
Q 19.671875 71.875 27.484375 71.875 
Q 33.25 71.875 37.59375 69.546875 
Q 41.9375 67.234375 44.765625 62.859375 
Q 47.609375 58.5 49.21875 52.21875 
Q 50.828125 45.953125 50.828125 35.296875 
Q 50.828125 22.703125 48.234375 14.96875 
Q 45.65625 7.234375 40.5 3 
Q 35.359375 -1.21875 27.484375 -1.21875 
Q 17.140625 -1.21875 11.234375 6.203125 
Q 4.15625 15.140625 4.15625 35.296875 
z
M 13.1875 35.296875 
Q 13.1875 17.671875 17.3125 11.828125 
Q 21.4375 6 27.484375 6 
Q 33.546875 6 37.671875 11.859375 
Q 41.796875 17.71875 41.796875 35.296875 
Q 41.796875 52.984375 37.671875 58.78125 
Q 33.546875 64.59375 27.390625 64.59375 
Q 21.34375 64.59375 17.71875 59.46875 
Q 13.1875 52.9375 13.1875 35.296875 
z
" id="ArialMT-48"/>
      <path d="M 9.078125 0 
L 9.078125 10.015625 
L 19.09375 10.015625 
L 19.09375 0 
z
" id="ArialMT-46"/>
     </defs>
     <g style="fill:#262626;" transform="translate(40.010413 197.183327)scale(0.1 -0.1)">
      <use xlink:href="#ArialMT-48"/>
      <use x="55.615234" xlink:href="#ArialMT-46"/>
      <use x="83.398438" xlink:href="#ArialMT-48"/>
     </g>
    </g>
   </g>
   <g id="xtick_2">
    <g id="line2d_4">
     <path clip-path="url(#p18f7f6c6c7)" d="M 179.124324 112.981622 
" style="fill:none;stroke:#cccccc;stroke-linecap:round;stroke-width:0.8;"/>
    </g>
    <g id="line2d_5">
     <path d="M 85.787336 183.222804 
L 83.347042 184.628661 
" style="fill:none;stroke:#262626;stroke-linecap:round;stroke-width:0.8;"/>
    </g>
    <g id="text_2">
     <!-- 0.2 -->
     <defs>
      <path d="M 50.34375 8.453125 
L 50.34375 0 
L 3.03125 0 
Q 2.9375 3.171875 4.046875 6.109375 
Q 5.859375 10.9375 9.828125 15.625 
Q 13.8125 20.3125 21.34375 26.46875 
Q 33.015625 36.03125 37.109375 41.625 
Q 41.21875 47.21875 41.21875 52.203125 
Q 41.21875 57.421875 37.46875 61 
Q 33.734375 64.59375 27.734375 64.59375 
Q 21.390625 64.59375 17.578125 60.78125 
Q 13.765625 56.984375 13.71875 50.25 
L 4.6875 51.171875 
Q 5.609375 61.28125 11.65625 66.578125 
Q 17.71875 71.875 27.9375 71.875 
Q 38.234375 71.875 44.234375 66.15625 
Q 50.25 60.453125 50.25 52 
Q 50.25 47.703125 48.484375 43.546875 
Q 46.734375 39.40625 42.65625 34.8125 
Q 38.578125 30.21875 29.109375 22.21875 
Q 21.1875 15.578125 18.9375 13.203125 
Q 16.703125 10.84375 15.234375 8.453125 
z
" id="ArialMT-50"/>
     </defs>
     <g style="fill:#262626;" transform="translate(70.275224 203.741159)scale(0.1 -0.1)">
      <use xlink:href="#ArialMT-48"/>
      <use x="55.615234" xlink:href="#ArialMT-46"/>
      <use x="83.398438" xlink:href="#ArialMT-50"/>
     </g>
    </g>
   </g>
   <g id="xtick_3">
    <g id="line2d_6">
     <path clip-path="url(#p18f7f6c6c7)" d="M 179.124324 112.981622 
" style="fill:none;stroke:#cccccc;stroke-linecap:round;stroke-width:0.8;"/>
    </g>
    <g id="line2d_7">
     <path d="M 116.572758 189.760599 
L 114.169421 191.191135 
" style="fill:none;stroke:#262626;stroke-linecap:round;stroke-width:0.8;"/>
    </g>
    <g id="text_3">
     <!-- 0.4 -->
     <defs>
      <path d="M 32.328125 0 
L 32.328125 17.140625 
L 1.265625 17.140625 
L 1.265625 25.203125 
L 33.9375 71.578125 
L 41.109375 71.578125 
L 41.109375 25.203125 
L 50.78125 25.203125 
L 50.78125 17.140625 
L 41.109375 17.140625 
L 41.109375 0 
z
M 32.328125 25.203125 
L 32.328125 57.46875 
L 9.90625 25.203125 
z
" id="ArialMT-52"/>
     </defs>
     <g style="fill:#262626;" transform="translate(101.069946 210.413813)scale(0.1 -0.1)">
      <use xlink:href="#ArialMT-48"/>
      <use x="55.615234" xlink:href="#ArialMT-46"/>
      <use x="83.398438" xlink:href="#ArialMT-52"/>
     </g>
    </g>
   </g>
   <g id="xtick_4">
    <g id="line2d_8">
     <path clip-path="url(#p18f7f6c6c7)" d="M 179.124324 112.981622 
" style="fill:none;stroke:#cccccc;stroke-linecap:round;stroke-width:0.8;"/>
    </g>
    <g id="line2d_9">
     <path d="M 147.90047 196.413558 
L 145.535778 197.869429 
" style="fill:none;stroke:#262626;stroke-linecap:round;stroke-width:0.8;"/>
    </g>
    <g id="text_4">
     <!-- 0.6 -->
     <defs>
      <path d="M 49.75 54.046875 
L 41.015625 53.375 
Q 39.84375 58.546875 37.703125 60.890625 
Q 34.125 64.65625 28.90625 64.65625 
Q 24.703125 64.65625 21.53125 62.3125 
Q 17.390625 59.28125 14.984375 53.46875 
Q 12.59375 47.65625 12.5 36.921875 
Q 15.671875 41.75 20.265625 44.09375 
Q 24.859375 46.4375 29.890625 46.4375 
Q 38.671875 46.4375 44.84375 39.96875 
Q 51.03125 33.5 51.03125 23.25 
Q 51.03125 16.5 48.125 10.71875 
Q 45.21875 4.9375 40.140625 1.859375 
Q 35.0625 -1.21875 28.609375 -1.21875 
Q 17.625 -1.21875 10.6875 6.859375 
Q 3.765625 14.9375 3.765625 33.5 
Q 3.765625 54.25 11.421875 63.671875 
Q 18.109375 71.875 29.4375 71.875 
Q 37.890625 71.875 43.28125 67.140625 
Q 48.6875 62.40625 49.75 54.046875 
z
M 13.875 23.1875 
Q 13.875 18.65625 15.796875 14.5 
Q 17.71875 10.359375 21.1875 8.171875 
Q 24.65625 6 28.46875 6 
Q 34.03125 6 38.03125 10.484375 
Q 42.046875 14.984375 42.046875 22.703125 
Q 42.046875 30.125 38.078125 34.390625 
Q 34.125 38.671875 28.125 38.671875 
Q 22.171875 38.671875 18.015625 34.390625 
Q 13.875 30.125 13.875 23.1875 
z
" id="ArialMT-54"/>
     </defs>
     <g style="fill:#262626;" transform="translate(132.408619 217.204332)scale(0.1 -0.1)">
      <use xlink:href="#ArialMT-48"/>
      <use x="55.615234" xlink:href="#ArialMT-46"/>
      <use x="83.398438" xlink:href="#ArialMT-54"/>
     </g>
    </g>
   </g>
   <g id="xtick_5">
    <g id="line2d_10">
     <path clip-path="url(#p18f7f6c6c7)" d="M 179.124324 112.981622 
" style="fill:none;stroke:#cccccc;stroke-linecap:round;stroke-width:0.8;"/>
    </g>
    <g id="line2d_11">
     <path d="M 179.784928 203.184752 
L 177.460641 204.666636 
" style="fill:none;stroke:#262626;stroke-linecap:round;stroke-width:0.8;"/>
    </g>
    <g id="text_5">
     <!-- 0.8 -->
     <defs>
      <path d="M 17.671875 38.8125 
Q 12.203125 40.828125 9.5625 44.53125 
Q 6.9375 48.25 6.9375 53.421875 
Q 6.9375 61.234375 12.546875 66.546875 
Q 18.171875 71.875 27.484375 71.875 
Q 36.859375 71.875 42.578125 66.421875 
Q 48.296875 60.984375 48.296875 53.171875 
Q 48.296875 48.1875 45.671875 44.5 
Q 43.0625 40.828125 37.75 38.8125 
Q 44.34375 36.671875 47.78125 31.875 
Q 51.21875 27.09375 51.21875 20.453125 
Q 51.21875 11.28125 44.71875 5.03125 
Q 38.234375 -1.21875 27.640625 -1.21875 
Q 17.046875 -1.21875 10.546875 5.046875 
Q 4.046875 11.328125 4.046875 20.703125 
Q 4.046875 27.6875 7.59375 32.390625 
Q 11.140625 37.109375 17.671875 38.8125 
z
M 15.921875 53.71875 
Q 15.921875 48.640625 19.1875 45.40625 
Q 22.46875 42.1875 27.6875 42.1875 
Q 32.765625 42.1875 36.015625 45.375 
Q 39.265625 48.578125 39.265625 53.21875 
Q 39.265625 58.0625 35.90625 61.359375 
Q 32.5625 64.65625 27.59375 64.65625 
Q 22.5625 64.65625 19.234375 61.421875 
Q 15.921875 58.203125 15.921875 53.71875 
z
M 13.09375 20.65625 
Q 13.09375 16.890625 14.875 13.375 
Q 16.65625 9.859375 20.171875 7.921875 
Q 23.6875 6 27.734375 6 
Q 34.03125 6 38.125 10.046875 
Q 42.234375 14.109375 42.234375 20.359375 
Q 42.234375 26.703125 38.015625 30.859375 
Q 33.796875 35.015625 27.4375 35.015625 
Q 21.234375 35.015625 17.15625 30.90625 
Q 13.09375 26.8125 13.09375 20.65625 
z
" id="ArialMT-56"/>
     </defs>
     <g style="fill:#262626;" transform="translate(164.305784 224.115866)scale(0.1 -0.1)">
      <use xlink:href="#ArialMT-48"/>
      <use x="55.615234" xlink:href="#ArialMT-46"/>
      <use x="83.398438" xlink:href="#ArialMT-56"/>
     </g>
    </g>
   </g>
   <g id="xtick_6">
    <g id="line2d_12">
     <path clip-path="url(#p18f7f6c6c7)" d="M 179.124324 112.981622 
" style="fill:none;stroke:#cccccc;stroke-linecap:round;stroke-width:0.8;"/>
    </g>
    <g id="line2d_13">
     <path d="M 212.241105 210.07736 
L 209.959063 211.58596 
" style="fill:none;stroke:#262626;stroke-linecap:round;stroke-width:0.8;"/>
    </g>
    <g id="text_6">
     <!-- 1.0 -->
     <defs>
      <path d="M 37.25 0 
L 28.46875 0 
L 28.46875 56 
Q 25.296875 52.984375 20.140625 49.953125 
Q 14.984375 46.921875 10.890625 45.40625 
L 10.890625 53.90625 
Q 18.265625 57.375 23.78125 62.296875 
Q 29.296875 67.234375 31.59375 71.875 
L 37.25 71.875 
z
" id="ArialMT-49"/>
     </defs>
     <g style="fill:#262626;" transform="translate(196.776504 231.151678)scale(0.1 -0.1)">
      <use xlink:href="#ArialMT-49"/>
      <use x="55.615234" xlink:href="#ArialMT-46"/>
      <use x="83.398438" xlink:href="#ArialMT-48"/>
     </g>
    </g>
   </g>
  </g>
  <g id="axis3d_2">
   <g id="line2d_14">
    <path d="M 302.626265 153.086553 
L 214.897263 211.305609 
" style="fill:none;stroke:#cccccc;stroke-linecap:round;"/>
   </g>
   <g id="Line3DCollection_2">
    <path d="M 46.829722 68.277499 
L 53.644461 175.446459 
L 216.790908 210.048941 
" style="fill:none;stroke:#cccccc;stroke-width:0.8;"/>
    <path d="M 67.447266 58.515516 
L 73.115861 164.613329 
L 234.662974 198.188613 
" style="fill:none;stroke:#cccccc;stroke-width:0.8;"/>
    <path d="M 87.439412 49.049646 
L 92.026177 154.092365 
L 251.996718 186.685527 
" style="fill:none;stroke:#cccccc;stroke-width:0.8;"/>
    <path d="M 106.834189 39.866619 
L 110.399316 143.870265 
L 268.816103 175.523782 
" style="fill:none;stroke:#cccccc;stroke-width:0.8;"/>
    <path d="M 125.657977 30.953942 
L 128.257847 133.934473 
L 285.143687 164.688408 
" style="fill:none;stroke:#cccccc;stroke-width:0.8;"/>
    <path d="M 143.935627 22.299851 
L 145.623091 124.273127 
L 301.000731 154.165296 
" style="fill:none;stroke:#cccccc;stroke-width:0.8;"/>
   </g>
   <g id="xtick_7">
    <g id="line2d_15">
     <path clip-path="url(#p18f7f6c6c7)" d="M 179.124324 112.981622 
" style="fill:none;stroke:#cccccc;stroke-linecap:round;stroke-width:0.8;"/>
    </g>
    <g id="line2d_16">
     <path d="M 215.425303 209.759304 
L 219.52518 210.628866 
" style="fill:none;stroke:#262626;stroke-linecap:round;stroke-width:0.8;"/>
    </g>
    <g id="text_7">
     <!-- 0.0 -->
     <g style="fill:#262626;" transform="translate(223.32593 228.455151)scale(0.1 -0.1)">
      <use xlink:href="#ArialMT-48"/>
      <use x="55.615234" xlink:href="#ArialMT-46"/>
      <use x="83.398438" xlink:href="#ArialMT-48"/>
     </g>
    </g>
   </g>
   <g id="xtick_8">
    <g id="line2d_17">
     <path clip-path="url(#p18f7f6c6c7)" d="M 179.124324 112.981622 
" style="fill:none;stroke:#cccccc;stroke-linecap:round;stroke-width:0.8;"/>
    </g>
    <g id="line2d_18">
     <path d="M 233.311671 197.907764 
L 237.368564 198.750931 
" style="fill:none;stroke:#262626;stroke-linecap:round;stroke-width:0.8;"/>
    </g>
    <g id="text_8">
     <!-- 0.2 -->
     <g style="fill:#262626;" transform="translate(240.981757 216.429667)scale(0.1 -0.1)">
      <use xlink:href="#ArialMT-48"/>
      <use x="55.615234" xlink:href="#ArialMT-46"/>
      <use x="83.398438" xlink:href="#ArialMT-50"/>
     </g>
    </g>
   </g>
   <g id="xtick_9">
    <g id="line2d_19">
     <path clip-path="url(#p18f7f6c6c7)" d="M 179.124324 112.981622 
" style="fill:none;stroke:#cccccc;stroke-linecap:round;stroke-width:0.8;"/>
    </g>
    <g id="line2d_20">
     <path d="M 250.659482 186.413072 
L 254.674101 187.231029 
" style="fill:none;stroke:#262626;stroke-linecap:round;stroke-width:0.8;"/>
    </g>
    <g id="text_9">
     <!-- 0.4 -->
     <g style="fill:#262626;" transform="translate(258.106075 204.766197)scale(0.1 -0.1)">
      <use xlink:href="#ArialMT-48"/>
      <use x="55.615234" xlink:href="#ArialMT-46"/>
      <use x="83.398438" xlink:href="#ArialMT-52"/>
     </g>
    </g>
   </g>
   <g id="xtick_10">
    <g id="line2d_21">
     <path clip-path="url(#p18f7f6c6c7)" d="M 179.124324 112.981622 
" style="fill:none;stroke:#cccccc;stroke-linecap:round;stroke-width:0.8;"/>
    </g>
    <g id="line2d_22">
     <path d="M 267.492699 175.259351 
L 271.465748 176.053212 
" style="fill:none;stroke:#262626;stroke-linecap:round;stroke-width:0.8;"/>
    </g>
    <g id="text_10">
     <!-- 0.6 -->
     <g style="fill:#262626;" transform="translate(274.722528 193.448637)scale(0.1 -0.1)">
      <use xlink:href="#ArialMT-48"/>
      <use x="55.615234" xlink:href="#ArialMT-46"/>
      <use x="83.398438" xlink:href="#ArialMT-54"/>
     </g>
    </g>
   </g>
   <g id="xtick_11">
    <g id="line2d_23">
     <path clip-path="url(#p18f7f6c6c7)" d="M 179.124324 112.981622 
" style="fill:none;stroke:#cccccc;stroke-linecap:round;stroke-width:0.8;"/>
    </g>
    <g id="line2d_24">
     <path d="M 283.833884 164.431651 
L 287.76606 165.202466 
" style="fill:none;stroke:#262626;stroke-linecap:round;stroke-width:0.8;"/>
    </g>
    <g id="text_11">
     <!-- 0.8 -->
     <g style="fill:#262626;" transform="translate(290.853378 182.461824)scale(0.1 -0.1)">
      <use xlink:href="#ArialMT-48"/>
      <use x="55.615234" xlink:href="#ArialMT-46"/>
      <use x="83.398438" xlink:href="#ArialMT-56"/>
     </g>
    </g>
   </g>
   <g id="xtick_12">
    <g id="line2d_25">
     <path clip-path="url(#p18f7f6c6c7)" d="M 179.124324 112.981622 
" style="fill:none;stroke:#cccccc;stroke-linecap:round;stroke-width:0.8;"/>
    </g>
    <g id="line2d_26">
     <path d="M 299.7043 153.915884 
L 303.596291 154.664641 
" style="fill:none;stroke:#262626;stroke-linecap:round;stroke-width:0.8;"/>
    </g>
    <g id="text_12">
     <!-- 1.0 -->
     <g style="fill:#262626;" transform="translate(306.519606 171.791467)scale(0.1 -0.1)">
      <use xlink:href="#ArialMT-49"/>
      <use x="55.615234" xlink:href="#ArialMT-46"/>
      <use x="83.398438" xlink:href="#ArialMT-48"/>
     </g>
    </g>
   </g>
  </g>
  <g id="axis3d_3">
   <g id="line2d_27">
    <path d="M 302.626265 153.086553 
L 309.120561 48.145466 
" style="fill:none;stroke:#cccccc;stroke-linecap:round;"/>
   </g>
   <g id="Line3DCollection_3">
    <path d="M 302.749786 151.090589 
L 147.374017 121.340379 
L 51.451176 174.556388 
" style="fill:none;stroke:#cccccc;stroke-width:0.8;"/>
    <path d="M 303.948276 131.724225 
L 147.079109 102.509051 
L 50.172514 154.784603 
" style="fill:none;stroke:#cccccc;stroke-width:0.8;"/>
    <path d="M 305.170232 111.978691 
L 146.778671 83.324618 
L 48.867982 134.612777 
" style="fill:none;stroke:#cccccc;stroke-width:0.8;"/>
    <path d="M 306.416349 91.842739 
L 146.472545 63.777056 
L 47.536784 114.028647 
" style="fill:none;stroke:#cccccc;stroke-width:0.8;"/>
    <path d="M 307.68735 71.304675 
L 146.16057 43.855954 
L 46.178097 93.019439 
" style="fill:none;stroke:#cccccc;stroke-width:0.8;"/>
    <path d="M 308.983989 50.352332 
L 145.842576 23.550504 
L 44.791059 71.571851 
" style="fill:none;stroke:#cccccc;stroke-width:0.8;"/>
   </g>
   <g id="xtick_13">
    <g id="line2d_28">
     <path clip-path="url(#p18f7f6c6c7)" d="M 179.124324 112.981622 
" style="fill:none;stroke:#cccccc;stroke-linecap:round;stroke-width:0.8;"/>
    </g>
    <g id="line2d_29">
     <path d="M 301.453397 150.842366 
L 305.34526 151.587551 
" style="fill:none;stroke:#262626;stroke-linecap:round;stroke-width:0.8;"/>
    </g>
    <g id="text_13">
     <!-- 0.0 -->
     <g style="fill:#262626;" transform="translate(315.208646 156.436038)scale(0.1 -0.1)">
      <use xlink:href="#ArialMT-48"/>
      <use x="55.615234" xlink:href="#ArialMT-46"/>
      <use x="83.398438" xlink:href="#ArialMT-48"/>
     </g>
    </g>
   </g>
   <g id="xtick_14">
    <g id="line2d_30">
     <path clip-path="url(#p18f7f6c6c7)" d="M 179.124324 112.981622 
" style="fill:none;stroke:#cccccc;stroke-linecap:round;stroke-width:0.8;"/>
    </g>
    <g id="line2d_31">
     <path d="M 302.638905 131.480369 
L 306.569769 132.21245 
" style="fill:none;stroke:#262626;stroke-linecap:round;stroke-width:0.8;"/>
    </g>
    <g id="text_14">
     <!-- 0.2 -->
     <g style="fill:#262626;" transform="translate(316.591756 137.101596)scale(0.1 -0.1)">
      <use xlink:href="#ArialMT-48"/>
      <use x="55.615234" xlink:href="#ArialMT-46"/>
      <use x="83.398438" xlink:href="#ArialMT-50"/>
     </g>
    </g>
   </g>
   <g id="xtick_15">
    <g id="line2d_32">
     <path clip-path="url(#p18f7f6c6c7)" d="M 179.124324 112.981622 
" style="fill:none;stroke:#cccccc;stroke-linecap:round;stroke-width:0.8;"/>
    </g>
    <g id="line2d_33">
     <path d="M 303.847616 111.739421 
L 307.81827 112.457738 
" style="fill:none;stroke:#262626;stroke-linecap:round;stroke-width:0.8;"/>
    </g>
    <g id="text_15">
     <!-- 0.4 -->
     <g style="fill:#262626;" transform="translate(318.001875 117.389583)scale(0.1 -0.1)">
      <use xlink:href="#ArialMT-48"/>
      <use x="55.615234" xlink:href="#ArialMT-46"/>
      <use x="83.398438" xlink:href="#ArialMT-52"/>
     </g>
    </g>
   </g>
   <g id="xtick_16">
    <g id="line2d_34">
     <path clip-path="url(#p18f7f6c6c7)" d="M 179.124324 112.981622 
" style="fill:none;stroke:#cccccc;stroke-linecap:round;stroke-width:0.8;"/>
    </g>
    <g id="line2d_35">
     <path d="M 305.080217 91.608285 
L 309.091474 92.312149 
" style="fill:none;stroke:#262626;stroke-linecap:round;stroke-width:0.8;"/>
    </g>
    <g id="text_16">
     <!-- 0.6 -->
     <g style="fill:#262626;" transform="translate(319.439804 97.288831)scale(0.1 -0.1)">
      <use xlink:href="#ArialMT-48"/>
      <use x="55.615234" xlink:href="#ArialMT-46"/>
      <use x="83.398438" xlink:href="#ArialMT-54"/>
     </g>
    </g>
   </g>
   <g id="xtick_17">
    <g id="line2d_36">
     <path clip-path="url(#p18f7f6c6c7)" d="M 179.124324 112.981622 
" style="fill:none;stroke:#cccccc;stroke-linecap:round;stroke-width:0.8;"/>
    </g>
    <g id="line2d_37">
     <path d="M 306.337424 71.075278 
L 310.390122 71.763965 
" style="fill:none;stroke:#262626;stroke-linecap:round;stroke-width:0.8;"/>
    </g>
    <g id="text_17">
     <!-- 0.8 -->
     <g style="fill:#262626;" transform="translate(320.906372 76.787726)scale(0.1 -0.1)">
      <use xlink:href="#ArialMT-48"/>
      <use x="55.615234" xlink:href="#ArialMT-46"/>
      <use x="83.398438" xlink:href="#ArialMT-56"/>
     </g>
    </g>
   </g>
   <g id="xtick_18">
    <g id="line2d_38">
     <path clip-path="url(#p18f7f6c6c7)" d="M 179.124324 112.981622 
" style="fill:none;stroke:#cccccc;stroke-linecap:round;stroke-width:0.8;"/>
    </g>
    <g id="line2d_39">
     <path d="M 307.619981 50.128245 
L 311.714985 50.800996 
" style="fill:none;stroke:#262626;stroke-linecap:round;stroke-width:0.8;"/>
    </g>
    <g id="text_18">
     <!-- 1.0 -->
     <g style="fill:#262626;" transform="translate(322.402445 55.874185)scale(0.1 -0.1)">
      <use xlink:href="#ArialMT-49"/>
      <use x="55.615234" xlink:href="#ArialMT-46"/>
      <use x="83.398438" xlink:href="#ArialMT-48"/>
     </g>
    </g>
   </g>
  </g>
  <g id="axes_1"/>
 </g>
 <defs>
  <clipPath id="p18f7f6c6c7">
   <rect height="217.44" width="334.8" x="7.2" y="7.2"/>
  </clipPath>
 </defs>
</svg>
